<?xml version="1.0" encoding="utf-8"?>
<!-- Generator: Adobe Illustrator 21.1.0, SVG Export Plug-In . SVG Version: 6.00 Build 0)  -->
<svg version="1.1" xmlns="http://www.w3.org/2000/svg" xmlns:xlink="http://www.w3.org/1999/xlink" x="0px" y="0px"
	 viewBox="0 0 1366 768" style="enable-background:new 0 0 1366 768;" xml:space="preserve">
<style type="text/css">
	.st0{fill:none;}
	.st1{fill:none;stroke:#FFFFFF;stroke-miterlimit:10;}
	.st2{fill:#FFFFFF;stroke:#FFFFFF;stroke-miterlimit:10;}
</style>
<g id="Calque_1">
	<path class="st0" d="M835,744"/>
	<path class="st1" d="M742.8,650c0,43.4-26.7,78.5-59.7,78.5c-32.9,0-59.7-35.1-59.7-78.5s27.1-89.5,60-89.5S742.8,606.6,742.8,650z
		"/>
</g>
<g id="Calque_3">
	<g>
		<polygon class="st1" points="641.2,312.9 682,291.3 722.5,312.9 763.2,291.3 785.4,303.1 774.3,275.6 763.2,269.6 722.5,291.3 
			682,269.6 641.2,291.3 600.7,269.6 591.4,274.6 580.2,302.1 600.7,291.3 		"/>
		<polygon class="st1" points="682,248 722.5,269.6 763.2,248 682.7,48.4 601.8,248.6 641.2,269.6 		"/>
		<polygon class="st2" points="641.2,291.3 682,269.6 722.5,291.3 763.2,269.6 774.3,275.6 763.2,248 722.5,269.6 682,248 
			641.2,269.6 601.8,248.6 591.4,274.6 600.7,269.6 		"/>
		<polygon class="st1" points="641.2,333.9 682,312.2 722.5,333.9 763.2,312.2 796.2,329.8 785.4,303.1 763.2,291.3 722.5,312.9 
			682,291.3 641.2,312.9 600.7,291.3 580.2,302.1 569.5,328.7 600.7,312.2 		"/>
		<polygon class="st1" points="972.4,766.8 806,354.3 803.8,355.5 763.2,333.9 722.5,355.5 682,333.9 641.2,355.5 600.7,333.9 
			559.8,355.5 558.9,355 392.1,768 		"/>
		<polygon class="st2" points="600.7,333.9 641.2,355.5 682,333.9 722.5,355.5 763.2,333.9 807.5,358.5 805.5,353.5 796.2,329.8 
			763.2,312.2 722.5,333.9 682,312.2 641.2,333.9 600.7,312.2 569.5,328.7 558.9,355 558.5,356.5 		"/>
	</g>
	<path class="st1" d="M763.5,248.5"/>
	<path class="st1" d="M601.5,248.5"/>
	<path class="st1" d="M803.5,355.5"/>
	<path class="st1" d="M559.5,355.5"/>
	<line class="st1" x1="970.5" y1="762.5" x2="675.5" y2="30.5"/>
	<line class="st1" x1="392.5" y1="767.5" x2="695.5" y2="17.5"/>
</g>
<g id="Calque_2">
</g>
</svg>
