<?xml version="1.0" standalone="no"?>
<!DOCTYPE svg PUBLIC "-//W3C//DTD SVG 20010904//EN"
 "http://www.w3.org/TR/2001/REC-SVG-20010904/DTD/svg10.dtd">
<svg version="1.0" xmlns="http://www.w3.org/2000/svg"
 width="792.000000pt" height="792.000000pt" viewBox="0 0 792.000000 792.000000"
 preserveAspectRatio="xMidYMid meet">
<metadata>
Created by potrace 1.11, written by Peter Selinger 2001-2013
</metadata>
<g transform="translate(0.000000,792.000000) scale(0.100000,-0.100000)"
fill="#000000" stroke="none">
<path d="M3269 7195 c-194 -39 -340 -106 -436 -200 -45 -46 -63 -71 -68 -99
-5 -27 -11 -34 -18 -27 -20 20 -43 11 -99 -39 -82 -73 -202 -194 -240 -243
-70 -87 -143 -236 -174 -350 -15 -59 -14 -50 -14 -94 -1 -35 -6 -42 -74 -91
-40 -29 -110 -88 -155 -132 l-81 -80 -68 34 c-193 97 -518 217 -685 252 -172
36 -313 52 -440 48 -99 -3 -165 -10 -252 -28 -70 -14 -267 -94 -285 -115 -3
-3 -24 -19 -47 -34 -109 -70 -139 -127 -130 -251 8 -110 57 -229 137 -331 52
-67 181 -193 243 -238 255 -182 352 -267 468 -406 84 -100 178 -233 224 -316
15 -27 44 -79 65 -115 20 -36 59 -105 85 -155 26 -49 63 -114 82 -144 74 -116
197 -218 311 -257 50 -18 53 -22 73 -74 54 -148 113 -290 120 -290 4 0 7 33 7
73 0 39 0 104 1 142 2 60 4 66 13 45 63 -146 178 -347 229 -400 8 -8 27 -33
44 -55 42 -57 219 -232 292 -288 60 -46 85 -59 66 -34 -17 21 -39 100 -42 150
-3 50 0 54 21 34 7 -7 36 -30 64 -52 l51 -40 -17 -30 c-22 -39 -83 -175 -110
-245 l-21 -55 33 31 c39 37 118 94 129 94 5 0 -6 -21 -23 -46 -43 -64 -86
-173 -99 -252 -11 -66 -13 -188 -5 -227 3 -11 5 -27 6 -35 1 -8 9 5 20 30 18
45 62 128 85 162 9 14 11 -17 9 -140 -3 -216 23 -351 100 -512 l31 -65 2 45
c4 69 24 205 32 219 7 11 21 -57 23 -109 1 -25 45 -191 67 -254 45 -126 184
-397 197 -383 3 2 -3 35 -12 73 -15 67 -29 312 -16 300 3 -4 7 -14 8 -22 6
-42 60 -188 96 -259 47 -92 131 -222 181 -280 l36 -40 -9 40 c-20 92 -22 105
-40 222 -5 39 -10 87 -9 105 l1 33 10 -30 c32 -97 104 -261 141 -320 41 -67
88 -135 97 -140 6 -4 10 5 9 22 -1 29 10 180 16 221 2 13 7 53 10 90 9 86 19
97 23 24 4 -64 26 -183 48 -252 17 -51 85 -192 91 -187 12 13 83 346 83 392 0
40 18 29 30 -17 25 -96 62 -227 83 -288 11 -36 22 -67 22 -70 8 -32 21 -71 33
-100 l14 -34 50 154 c27 85 64 211 83 280 18 69 34 123 35 120 4 -13 10 -48
14 -86 4 -32 35 -184 51 -249 1 -5 6 -29 10 -53 4 -23 11 -44 15 -47 8 -5 71
119 93 185 24 72 47 194 47 250 0 27 4 50 10 50 5 0 9 -3 8 -7 -2 -8 12 -133
18 -168 2 -11 7 -67 10 -125 3 -58 7 -107 9 -108 7 -7 75 96 122 183 52 97 73
144 109 245 27 73 30 56 14 -65 -16 -118 -19 -138 -34 -197 -7 -32 -10 -58 -6
-58 21 0 136 167 197 285 48 92 115 279 105 291 -4 4 -1 4 6 0 9 -5 11 -34 7
-109 -3 -56 -7 -113 -10 -127 -2 -13 -7 -42 -10 -65 -3 -22 -8 -49 -11 -60 -8
-30 87 130 128 215 73 153 128 338 143 475 2 22 5 47 5 55 5 39 32 -86 37
-168 6 -92 6 -92 23 -65 29 50 69 156 92 248 19 76 22 117 23 271 0 145 2 178
12 164 23 -32 93 -175 93 -189 0 -25 11 -4 16 30 23 171 -20 360 -110 492 -14
20 -23 37 -20 37 7 0 48 -22 54 -29 3 -3 28 -25 57 -49 l52 -42 -11 32 c-6 18
-17 44 -25 58 -7 14 -13 28 -13 32 0 5 -22 53 -49 108 -49 98 -49 100 -29 111
11 6 40 29 64 51 25 23 45 35 49 28 11 -17 -4 -109 -25 -157 -20 -47 -25 -66
-12 -48 4 6 32 29 62 51 72 54 212 190 288 281 106 126 223 317 267 436 10 26
21 49 24 51 3 2 6 -65 5 -150 -1 -85 0 -154 1 -154 4 0 71 168 108 269 l35 94
61 23 c135 51 237 145 334 306 31 53 57 99 57 101 0 11 150 272 205 357 157
240 324 412 560 576 229 158 394 358 441 536 17 66 12 193 -10 235 -43 82
-291 221 -446 249 -14 2 -50 10 -80 16 -81 16 -328 13 -445 -6 -261 -42 -507
-122 -804 -262 l-114 -54 -76 76 c-42 42 -113 103 -158 136 -46 33 -83 65 -84
72 -7 123 -69 282 -164 426 -40 59 -190 215 -289 299 -31 26 -45 32 -67 27
-23 -4 -29 -2 -29 12 0 20 -34 79 -59 103 -149 142 -393 221 -661 215 -152 -4
-238 -20 -377 -73 l-93 -36 -48 21 c-79 34 -169 61 -272 80 -60 11 -299 9
-361 -3z m694 -282 c-4 -10 -9 -11 -19 -2 -18 15 -18 15 5 15 11 0 17 -5 14
-13z m-5 -84 c-3 -8 -7 -3 -11 10 -4 17 -3 21 5 13 5 -5 8 -16 6 -23z"/>
</g>
</svg>
