<svg xmlns="http://www.w3.org/2000/svg" viewBox="0 0 190.07 156.07"><defs><style>.cls-1{fill:#f8c8cc;stroke:#152645;stroke-miterlimit:10;}.cls-2{fill:#ebb28d;}.cls-3{fill:#cf9c7c;}.cls-4{fill:#ba8b6e;}.cls-5{fill:#f2e9d3;}.cls-6{fill:#d1bbad;}.cls-7{fill:#dbd4bf;}.cls-8{fill:#212121;}.cls-9{fill:#3b3b3b;}.cls-10{fill:#fff;}.cls-11{fill:#404040;}.cls-12{fill:#4a4a4a;}.cls-13{opacity:0.2;}.cls-14{fill:#0c0e0f;}</style></defs><title>monkey_brain</title><g id="Calque_2" data-name="Calque 2"><path class="cls-1" d="M682.84,311.58l-.12-2.88a26.58,26.58,0,0,1,15.23-2.4c8.31,1.32,11.37,4.89,12,6a6.42,6.42,0,0,1,.11,4.76,12.27,12.27,0,0,1-3.44,4.61,6.45,6.45,0,0,1-1.82,1.06s-4.53-5.12-9.29-5.48a24.68,24.68,0,0,0-9.39,1c-1.68.46-3.37,2.66-3.37,2.66L683,313a8.13,8.13,0,0,1,6-2.72c3.75.09,5.43.63,6,1.24a9.17,9.17,0,0,0,3.68,2.23c1.67.48,2.41,1,2.81,1s.94-.67-1.87-1.62a11.46,11.46,0,0,1-4.21-2.37,3,3,0,0,1,3.16-1c2.21.41,3.68,1.09,4.42,1.16s1.48-.13.34-.6a16,16,0,0,0-5.83-1.31,4.71,4.71,0,0,0-3,1.46,14.31,14.31,0,0,0-6-1A11.42,11.42,0,0,0,682.84,311.58Z" transform="translate(-587.52 -305.5)"/><path class="cls-1" d="M705.7,323.57a25.76,25.76,0,0,0,2.36-2c1-1,1.35-2.27,2.69-2.33s2.21-.06,2.61,1.42a19.71,19.71,0,0,0,2.59,5.18c1.13,1.68,2.46,3.37,2.86,3.37a.42.42,0,0,0,.47-.47,33.59,33.59,0,0,1-2.73-3c-1.26-1.82-2.06-3-2.19-4.1s-.32-2.28-1.39-2.76a6.72,6.72,0,0,0-2.34-.48s.34-1.47.48-2.54.08-1.74.68-1.87,3.61,3,6,5.33c2.8,2.7,5.12,8.14,5.51,10.49a38.12,38.12,0,0,1,.37,5.37s-2.22,1.46-2.69,1.33-.66-1.34-2.2-1.42a20.46,20.46,0,0,0-4.56.24c-.47.2-1.28.46-1.28.46a27,27,0,0,0-1.31-5.64,15.23,15.23,0,0,0-3.46-4.71A16.93,16.93,0,0,0,705.7,323.57Z" transform="translate(-587.52 -305.5)"/><path class="cls-1" d="M703.24,356.47c-5.26-.63-7.93-2.39-9.1-3.54-.8-.78.13-2.28,1.49-3.81a54.55,54.55,0,0,1,7.56-7.4c3.7-2.59,9.15-5.92,12.64-5.9s4,.42,4.81,2.37a20.75,20.75,0,0,1,.9,7.18,40.61,40.61,0,0,1-.49,4.22.74.74,0,0,0,.81-.33,20.5,20.5,0,0,0,.63-5.83,17,17,0,0,0-.71-4.63c-.4-.87-.6-1.48-.6-1.48s2.56-2.2,3.63-1.19a11.37,11.37,0,0,1,2.91,6.72,13.26,13.26,0,0,1-.57,6.37,5.92,5.92,0,0,1-1.62,1.94,31.73,31.73,0,0,0,.56-5.16c0-2.41-.11-4-.65-3.89s.25,3.42-.1,5.43,0,6.44-3.86,7.82a13.41,13.41,0,0,1-8.38,0,2.37,2.37,0,0,1-1-.61s1.78-6.16,1.92-7.5.41-2-1.73-2.22-4,1.86-3.83,2.33,1.35-1.2,2.82-1.59,2.08-.19,2.07.68-1.65,8-2.53,8.7-5.45,1.55-7.58,1.3" transform="translate(-587.52 -305.5)"/><path class="cls-1" d="M682.78,322.44s0,26.35.19,27.35,3.6,4.11,7.22,3,2.39-8.57,2.27-11.18-.09-7.84.59-9.58a11.93,11.93,0,0,1,2.5-3.47,4.68,4.68,0,0,0-.05-2.75c-.46-1.75-1.39-3.23-.92-3.22s1.27,1.15,1.53,2.56a28.07,28.07,0,0,1,.32,3.49,10.51,10.51,0,0,1,4.49-.51c2.75.22,2.61.62,2.48.88s-5-.7-7.18.36-2.9,3.6-3,5.88.22,9.79.14,11.8-.36,3.82.25,3.49,5.26-6.47,7.55-8.21a52.11,52.11,0,0,1,8.21-5.19c1.61-.59,3-1.19,3-1.19s0-5.1-2.91-8.26a52.38,52.38,0,0,0-8.81-7.76,15.53,15.53,0,0,0-7.9-2.39,20.49,20.49,0,0,0-8.06,2.3A4.6,4.6,0,0,0,682.78,322.44Z" transform="translate(-587.52 -305.5)"/><path class="cls-1" d="M681.86,311.53l.11-2.88a26.58,26.58,0,0,0-15.24-2.35c-8.3,1.35-11.36,4.92-12,6a6.42,6.42,0,0,0-.09,4.76,12.27,12.27,0,0,0,3.46,4.6,6.45,6.45,0,0,0,1.82,1.06s4.51-5.13,9.27-5.51a24.68,24.68,0,0,1,9.39,1c1.68.45,3.37,2.65,3.37,2.65l-.2-7.91a8.13,8.13,0,0,0-6.06-2.7c-3.75.1-5.42.65-6,1.26a9.17,9.17,0,0,1-3.67,2.24c-1.67.48-2.41,1-2.81,1s-.94-.66,1.86-1.63a11.46,11.46,0,0,0,4.2-2.38,3,3,0,0,0-3.16-1c-2.21.42-3.68,1.1-4.41,1.18s-1.48-.12-.34-.6a16,16,0,0,1,5.82-1.32,4.71,4.71,0,0,1,3,1.45,14.31,14.31,0,0,1,6-1.06A11.42,11.42,0,0,1,681.86,311.53Z" transform="translate(-587.52 -305.5)"/><path class="cls-1" d="M659,323.59a25.76,25.76,0,0,1-2.36-2c-1-1-1.36-2.27-2.7-2.32s-2.21,0-2.6,1.43a19.71,19.71,0,0,1-2.57,5.18c-1.13,1.69-2.45,3.37-2.85,3.38a.42.42,0,0,1-.47-.47,33.59,33.59,0,0,0,2.72-3c1.26-1.82,2.05-3,2.18-4.11s.32-2.28,1.38-2.76a6.72,6.72,0,0,1,2.34-.49s-.35-1.47-.49-2.54-.08-1.74-.69-1.87-3.6,3-6,5.35c-2.79,2.71-5.09,8.16-5.47,10.51a38.12,38.12,0,0,0-.36,5.37s2.22,1.46,2.69,1.32.66-1.35,2.2-1.43a20.46,20.46,0,0,1,4.56.23c.47.2,1.28.46,1.28.46a27,27,0,0,1,1.29-5.64,15.23,15.23,0,0,1,3.45-4.72A16.93,16.93,0,0,1,659,323.59Z" transform="translate(-587.52 -305.5)"/><path class="cls-1" d="M661.59,356.49c5.25-.64,7.92-2.42,9.09-3.56.79-.78-.14-2.28-1.5-3.81a54.55,54.55,0,0,0-7.58-7.38c-3.71-2.58-9.17-5.89-12.65-5.86s-4,.44-4.81,2.39a20.75,20.75,0,0,0-.88,7.18,40.61,40.61,0,0,0,.51,4.22.74.74,0,0,1-.81-.33,20.5,20.5,0,0,1-.65-5.83,17,17,0,0,1,.7-4.63c.39-.87.59-1.48.59-1.48s-2.57-2.19-3.63-1.18a11.37,11.37,0,0,0-2.89,6.73,13.26,13.26,0,0,0,.59,6.36,5.92,5.92,0,0,0,1.63,1.93,31.73,31.73,0,0,1-.58-5.16c0-2.41.1-4,.64-3.89s-.24,3.42.11,5.43,0,6.44,3.89,7.81a13.41,13.41,0,0,0,8.38,0,2.37,2.37,0,0,0,1-.61s-1.8-6.15-1.94-7.49-.42-2,1.72-2.23,4,1.84,3.84,2.31-1.35-1.2-2.83-1.58-2.08-.18-2.07.69,1.68,8,2.56,8.69,5.46,1.54,7.59,1.28" transform="translate(-587.52 -305.5)"/><path class="cls-1" d="M681.95,322.39s.09,26.35-.1,27.35-3.58,4.12-7.21,3-2.42-8.56-2.31-11.18.07-7.84-.62-9.58a11.93,11.93,0,0,0-2.51-3.46,4.68,4.68,0,0,1,0-2.75c.45-1.75,1.38-3.23.91-3.23s-1.26,1.15-1.52,2.56a28.07,28.07,0,0,0-.31,3.49,10.51,10.51,0,0,0-4.5-.5c-2.75.22-2.61.63-2.47.89s5-.71,7.18.34,2.91,3.6,3.07,5.87-.18,9.79-.1,11.8.37,3.82-.24,3.49-5.28-6.46-7.58-8.18a52.11,52.11,0,0,0-8.22-5.16c-1.61-.59-3-1.18-3-1.18s0-5.1,2.88-8.27a52.38,52.38,0,0,1,8.78-7.79,15.53,15.53,0,0,1,7.89-2.41,20.49,20.49,0,0,1,8.06,2.28A4.6,4.6,0,0,1,681.95,322.39Z" transform="translate(-587.52 -305.5)"/></g><g id="Calque_1" data-name="Calque 1"><path class="cls-2" d="M639.58,342s-32.93-21.71-50.8-5.88c-2.11,1.87-3.11,10.77,9.93,19.37s16.73,20.27,21,26.6c7.44,11.16,21.73,6.08,23.5-4.25S647.3,347.62,639.58,342Z" transform="translate(-587.52 -305.5)"/><path class="cls-3" d="M641.48,348.3s-30.74-19.43-46.7-9.45c-3.55,2.22-3.18,6.86-2.85,10.55a22.15,22.15,0,0,0,6.32,6c13.18,8.69,16.73,20.27,21,26.6,7.44,11.16,21.73,6.08,23.5-4.25,1.21-7,2.68-18.57,1-27A9.09,9.09,0,0,0,641.48,348.3Z" transform="translate(-587.52 -305.5)"/><path class="cls-4" d="M633.68,350.54s-12.82-14.17-31.8-7.47c0,0,21.78-3.67,25.82,22.33C627.7,365.4,636,361.69,633.68,350.54Z" transform="translate(-587.52 -305.5)"/><path class="cls-4" d="M613.57,343.36s-4.68,18.52,5,23.14a18.9,18.9,0,0,1,.93-21.66S616.6,341.88,613.57,343.36Z" transform="translate(-587.52 -305.5)"/><path class="cls-2" d="M725.53,342s32.93-21.71,50.8-5.88c2.11,1.87,3.11,10.77-9.93,19.37s-16.73,20.27-21,26.6c-7.44,11.16-21.73,6.08-23.5-4.25S717.82,347.62,725.53,342Z" transform="translate(-587.52 -305.5)"/><path class="cls-3" d="M723.63,348.3s30.74-19.43,46.7-9.45c3.55,2.22,3.18,6.86,2.85,10.55a22.15,22.15,0,0,1-6.32,6c-13.18,8.69-16.73,20.27-21,26.6-7.44,11.16-21.73,6.08-23.5-4.25-1.21-7-2.68-18.57-1-27A9.09,9.09,0,0,1,723.63,348.3Z" transform="translate(-587.52 -305.5)"/><path class="cls-4" d="M731.43,350.54s12.82-14.17,31.8-7.47c0,0-21.78-3.67-25.82,22.33C737.42,365.4,729.06,361.69,731.43,350.54Z" transform="translate(-587.52 -305.5)"/><path class="cls-4" d="M751.54,343.36s4.68,18.52-5,23.14a18.9,18.9,0,0,0-.93-21.66S748.52,341.88,751.54,343.36Z" transform="translate(-587.52 -305.5)"/><ellipse class="cls-5" cx="95.03" cy="62.12" rx="52.83" ry="44.62"/><path class="cls-6" d="M682.56,322c-62,0-66.53,41-51.44,75v-8c4.46,12.88,15.76,20.35,15.76,20.35a7.57,7.57,0,0,1-1.19-5.41,30.46,30.46,0,0,0,13.09,7.21c-5.35-5.67-2.28-15.35-2.28-15.35a40.29,40.29,0,0,0-5.38,5.21c-.95-1.64-2.22-8.22-2.22-8.22-.63,1.1-.32,4.66-.32,4.66-4.75-2.74-7-8.5-7-8.5-.63,1.64.32,5.21.32,5.21-5.06-6.31-3.8-14.8-3.8-14.8-1.58.27-3.8,2.19-3.8,2.19a14.63,14.63,0,0,1,1.58-12.34,10.15,10.15,0,0,0-3.8,1.92A16.93,16.93,0,0,1,641,355.8c-1.9-.27-6.33,1.1-6.33,1.1,4.43-6.85,13.3-9,13.3-9a18.23,18.23,0,0,0-6-.55,26.14,26.14,0,0,1,15.83-4.93,14,14,0,0,0-4.75-1.92c7-1.1,14.25,2.47,14.25,2.47a11.55,11.55,0,0,0-4.84-3.23c16,.33,20.14,10.86,20.14,10.86s4.18-10.53,20.14-10.86a11.55,11.55,0,0,0-4.84,3.23s7.28-3.56,14.25-2.47a14,14,0,0,0-4.75,1.92,26.14,26.14,0,0,1,15.83,4.93,18.23,18.23,0,0,0-6,.55s8.86,2.19,13.3,9c0,0-4.43-1.37-6.33-1.1A16.93,16.93,0,0,1,733,371.15a10.15,10.15,0,0,0-3.8-1.92,14.63,14.63,0,0,1,1.58,12.34s-2.22-1.92-3.8-2.19c0,0,1.27,8.5-3.8,14.8,0,0,.95-3.56.32-5.21,0,0-2.22,5.76-7,8.5,0,0,.32-3.56-.32-4.66,0,0-1.27,6.58-2.22,8.22a40.3,40.3,0,0,0-5.38-5.21s3.07,9.69-2.28,15.35A30.46,30.46,0,0,0,719.43,404a7.57,7.57,0,0,1-1.19,5.41S729.54,401.91,734,389v8C749.09,363,744.56,322,682.56,322Z" transform="translate(-587.52 -305.5)"/><path class="cls-5" d="M658.95,393.23a59.76,59.76,0,0,0-13.52,21.29,16,16,0,0,1,4.41-3.34,16.6,16.6,0,0,0-3.46,14.08,25.76,25.76,0,0,1,3-5.76s-2,9.81,2.94,18.17a17.63,17.63,0,0,1,.95-7.19s0,9,6.74,19a30.26,30.26,0,0,1-.81-10,32.09,32.09,0,0,0,7.68,15.09,60.93,60.93,0,0,1-1.48-10.24A39.87,39.87,0,0,0,671.62,457s.49-8.36,1.3-11.59a23.56,23.56,0,0,0,3.37,13.47s2.43-9.3,2.16-13.07l-4.85-50Z" transform="translate(-587.52 -305.5)"/><path class="cls-5" d="M706.16,393.23a59.76,59.76,0,0,1,13.52,21.29,16,16,0,0,0-4.41-3.34,16.6,16.6,0,0,1,3.46,14.08,25.76,25.76,0,0,0-3-5.76s2,9.81-2.94,18.17a17.63,17.63,0,0,0-.95-7.19s0,9-6.74,19a30.26,30.26,0,0,0,.81-10,32.09,32.09,0,0,1-7.68,15.09,60.93,60.93,0,0,0,1.48-10.24A39.87,39.87,0,0,1,693.49,457s-.49-8.36-1.3-11.59a23.56,23.56,0,0,1-3.37,13.47s-2.43-9.3-2.16-13.07l4.85-50Z" transform="translate(-587.52 -305.5)"/><path class="cls-5" d="M682.56,461.57c7.12-20.84,6.57-30,6.57-30H676s-.55,9.2,6.57,30" transform="translate(-587.52 -305.5)"/><path class="cls-7" d="M681.19,363.08a19.76,19.76,0,0,1-19.76,19.76h0a19.76,19.76,0,0,1-19.76-19.76v-.65a19.76,19.76,0,0,1,19.76-19.76h0a19.76,19.76,0,0,1,19.76,19.76Z" transform="translate(-587.52 -305.5)"/><path class="cls-8" d="M673.74,363a12.3,12.3,0,0,1-12.3,12.3h0a12.3,12.3,0,0,1-12.3-12.3v-.41a12.3,12.3,0,0,1,12.3-12.3h0a12.3,12.3,0,0,1,12.3,12.3Z" transform="translate(-587.52 -305.5)"/><path class="cls-9" d="M670.52,362.91a9.09,9.09,0,0,1-9.09,9.09h0a9.09,9.09,0,0,1-9.09-9.09v-.3a9.09,9.09,0,0,1,9.09-9.09h0a9.09,9.09,0,0,1,9.09,9.09Z" transform="translate(-587.52 -305.5)"/><path class="cls-8" d="M668.54,362.88a7.11,7.11,0,0,1-7.11,7.11h0a7.11,7.11,0,0,1-7.11-7.11v-.24a7.11,7.11,0,0,1,7.11-7.11h0a7.11,7.11,0,0,1,7.11,7.11Z" transform="translate(-587.52 -305.5)"/><circle class="cls-10" cx="79.02" cy="52.06" r="3.85"/><path class="cls-7" d="M723.44,363.08a19.76,19.76,0,0,1-19.76,19.76h0a19.76,19.76,0,0,1-19.76-19.76v-.65a19.76,19.76,0,0,1,19.76-19.76h0a19.76,19.76,0,0,1,19.76,19.76Z" transform="translate(-587.52 -305.5)"/><path class="cls-8" d="M716,363a12.3,12.3,0,0,1-12.3,12.3h0a12.3,12.3,0,0,1-12.3-12.3v-.41a12.3,12.3,0,0,1,12.3-12.3h0a12.3,12.3,0,0,1,12.3,12.3Z" transform="translate(-587.52 -305.5)"/><path class="cls-9" d="M712.77,362.91a9.09,9.09,0,0,1-9.09,9.09h0a9.09,9.09,0,0,1-9.09-9.09v-.3a9.09,9.09,0,0,1,9.09-9.09h0a9.09,9.09,0,0,1,9.09,9.09Z" transform="translate(-587.52 -305.5)"/><path class="cls-8" d="M710.79,362.88a7.11,7.11,0,0,1-7.11,7.11h0a7.11,7.11,0,0,1-7.11-7.11v-.24a7.11,7.11,0,0,1,7.11-7.11h0a7.11,7.11,0,0,1,7.11,7.11Z" transform="translate(-587.52 -305.5)"/><circle class="cls-10" cx="121.27" cy="52.06" r="3.85"/><path class="cls-11" d="M677.25,375.53c-3.64-.73-6.85.67-7.17,3.14s2.38,5.06,6,5.79,6.85-.67,7.17-3.14S680.89,376.27,677.25,375.53Z" transform="translate(-587.52 -305.5)"/><path class="cls-8" d="M677.36,377.58c-2.17-.44-4.08.4-4.27,1.87s1.41,3,3.58,3.45,4.08-.4,4.27-1.87S679.53,378,677.36,377.58Z" transform="translate(-587.52 -305.5)"/><path class="cls-11" d="M687.86,375.53c3.64-.73,6.85.67,7.17,3.14s-2.38,5.06-6,5.79-6.85-.67-7.17-3.14S684.22,376.27,687.86,375.53Z" transform="translate(-587.52 -305.5)"/><path class="cls-8" d="M687.76,377.58c2.17-.44,4.08.4,4.27,1.87s-1.41,3-3.58,3.45-4.08-.4-4.27-1.87S685.59,378,687.76,377.58Z" transform="translate(-587.52 -305.5)"/><path class="cls-9" d="M657.55,419.78a25.06,25.06,0,0,0,50,0Z" transform="translate(-587.52 -305.5)"/><path class="cls-11" d="M709.53,420.93a29.43,29.43,0,1,0-54,0Z" transform="translate(-587.52 -305.5)"/><path class="cls-12" d="M711.36,419.5a2.93,2.93,0,0,1-2.93,2.93H656.69a2.93,2.93,0,0,1-2.93-2.93h0a2.93,2.93,0,0,1,2.93-2.93h51.74a2.93,2.93,0,0,1,2.93,2.93Z" transform="translate(-587.52 -305.5)"/><g class="cls-13"><path class="cls-14" d="M682.56,379.73c.41,3,.63,6,.78,9s.2,6,.22,9-.06,6-.22,9-.36,6-.78,9c-.42-3-.63-6-.78-9s-.2-6-.22-9,.06-6,.22-9S682.14,382.71,682.56,379.73Z" transform="translate(-587.52 -305.5)"/></g></g></svg>