<?xml version="1.0" encoding="utf-8"?>
<!-- Generator: Adobe Illustrator 21.0.0, SVG Export Plug-In . SVG Version: 6.00 Build 0)  -->
<svg version="1.1" xmlns="http://www.w3.org/2000/svg" xmlns:xlink="http://www.w3.org/1999/xlink" x="0px" y="0px"
	 viewBox="0 0 1920 1080" style="enable-background:new 0 0 1920 1080;" xml:space="preserve">
<style type="text/css">
	.st0{fill:#D05D5B;stroke:#D05D5B;stroke-miterlimit:10;}
	.st1{fill:#FFFFFF;stroke:#FFFFFF;stroke-miterlimit:10;}
	.st2{fill:none;stroke:#FFFFFF;stroke-miterlimit:10;}
	.st3{fill:none;stroke:#F9F9F9;stroke-miterlimit:10;}
	.st4{fill:#233D4D;}
	.st5{fill:none;stroke:#F9F9F9;stroke-linejoin:round;stroke-miterlimit:10;}
	.st6{fill:#233D4D;stroke:#F9F9F9;stroke-miterlimit:10;}
	.st7{fill:#233D4D;stroke:#F9F9F9;stroke-linejoin:round;stroke-miterlimit:10;}
	.st8{fill:#FFFFFF;}
	.st9{fill:#FFFFFF;stroke:#FFFFFF;stroke-width:2;stroke-miterlimit:10;}
	.st10{opacity:0.7;}
	.st11{fill:#FFFFFF;stroke:#F9F9F9;stroke-miterlimit:10;}
</style>
<g id="Calque_2">
	<g id="Sun">
		<ellipse class="st0" cx="1320.5" cy="764.7" rx="74" ry="70.2"/>
	</g>
</g>
<g id="Calque_3">
	<path class="st1" d="M1088.5,637c-1.8,0-3.5,0.3-5.1,0.7c-3.7-9.3-12.7-15.9-23.3-15.9c-0.3,0-0.5,0-0.8,0
		c-5.6-12.3-18-20.8-32.3-20.8c-14.5,0-26.9,8.7-32.4,21.1c-1.2-0.2-2.3-0.3-3.5-0.3c-10.4,0-19.4,6.4-23.2,15.5
		c-1.1-0.2-2.2-0.3-3.3-0.3c-9.7,0-17.5,7.8-17.5,17.5c0,9.2,7.1,16.7,16.1,17.4v0.1h125v0c0.2,0,0.3,0,0.5,0
		c9.7,0,17.5-7.8,17.5-17.5C1106,644.8,1098.2,637,1088.5,637z"/>
	<path class="st2" d="M1783.1,595.7c0-12.6-10.2-22.8-22.8-22.8c-0.6,0-1.2,0-1.8,0.1c-4.8-12.7-17.1-21.7-31.4-21.7
		c-2.5,0-5,0.3-7.4,0.8c-6-22.6-26.6-39.2-51-39.2c-18.1,0-34,9.1-43.5,22.9c-4.2-1.4-8.6-2.1-13.3-2.1c-16,0-30,8.9-37.2,22
		c-3.2-1-6.5-1.6-10-1.6c-17.9,0-32.4,14.5-32.4,32.4c0,17.9,14.5,32.4,32.4,32.4c1.7,0,3.4-0.1,5.1-0.4h191.7v0
		C1773.5,617.8,1783.1,607.9,1783.1,595.7z"/>
</g>
<g id="Mountains_1_">
	<g id="Mountains">
		<path class="st3" d="M1834.5,1080.5"/>
		<path class="st3" d="M1684.7,918.9"/>
		<g>
			<path class="st4" d="M1222.5,659.5c-46.3,72-148.7,231-195,303l357-12L1222.5,659.5z"/>
			<path class="st5" d="M1384.5,950.5l-162-291c-46.3,72-148.7,231-195,303"/>
			<path class="st5" d="M1384.5,950.5l-162-291c-46.3,72-148.7,231-195,303"/>
		</g>
		<g>
			<polyline class="st6" points="1692.8,902.5 1920.5,456.5 1920.5,1080.5 1181.5,1080.5 			"/>
			<g>
				<path class="st7" d="M1384.5,950.5l-80-145c57.5-35.3,117-106,167-106s157.4,167.7,221.7,203l-57.1,112.8
					C1636,1015.3,1431.5,950.5,1384.5,950.5s-203,130-203,130"/>
			</g>
		</g>
		<polyline class="st7" points="1105.5,1080.5 884.5,748.5 551.5,1080.5 		"/>
		<g>
			<path class="st2" d="M1226.9,714.2l3.6,4.8c0.8,1,2.3,1.2,3.2,0.2l3.6-3.6c0.9-0.9,2.4-0.8,3.2,0.2l6.4,7.8
				c0.7,0.8,1.8,1,2.7,0.5l6.4-4.1l-33.6-59.7L1186,717l8.2,5.6c0.8,0.5,1.8,0.5,2.5-0.1l8-6.5c0.8-0.6,1.8-0.6,2.6-0.1l7.9,5.8
				c1.1,0.8,2.8,0.4,3.3-1l2.7-7.1c0.3-0.7,0.8-1.1,1.5-1.2C1224.3,712.3,1225.9,712.9,1226.9,714.2z"/>
			<path class="st8" d="M1226.9,714.2l3.6,4.8c0.8,1,2.3,1.2,3.2,0.2l3.6-3.6c0.9-0.9,2.4-0.8,3.2,0.2l6.4,7.8
				c0.7,0.8,1.8,1,2.7,0.5l6.4-4.1l-33.6-59.7L1186,717l8.2,5.6c0.8,0.5,1.8,0.5,2.5-0.1l8-6.5c0.8-0.6,1.8-0.6,2.6-0.1l7.9,5.8
				c1.1,0.8,2.8,0.4,3.3-1l2.7-7.1c0.3-0.7,0.8-1.1,1.5-1.2C1224.3,712.3,1225.9,712.9,1226.9,714.2z"/>
		</g>
		<path class="st9" d="M1264,683"/>
		<g class="st10">
			<path class="st2" d="M1072.5,813.5"/>
			<path class="st2" d="M969.5,875.5l56.6-110.1c0.6-1.1,2.2-1.1,2.7,0.1c7.7,18.4,18.4,44.4,25.8,62l18-26l24.1,53.7"/>
			<path class="st1" d="M1037.3,786c0.1,0.3,0.1,0.6-0.2,0.8c-0.6,0.6-0.6,0.5-1.7,1.5l-4.5,4c-0.1,0.1-0.3,0.1-0.4,0l-2.4-2.4
				c-1.3-1.3-3.2-1.6-4.8-0.8l-2.8,1.4c-0.1,0.1-0.3,0-0.4-0.1l-2.3-2.8c-0.2-0.2-0.4-0.5-0.7-0.8c-0.2-0.2-0.4-0.5-0.6-0.7
				c-0.3-0.3-0.4-0.8-0.2-1.3c3.4-6.1,6.8-12.9,10.2-18.9c0.4-0.7,1.3-0.6,1.7,0.1L1037.3,786z"/>
		</g>
		<path class="st1" d="M968.5,876.5"/>
		<path class="st6" d="M1384.5,950.5"/>
	</g>
	<polygon class="st11" points="928.5,814.5 904.6,826.5 889.5,814.1 860,849.9 852,824.5 805,859 811.5,821.5 884.5,748.5 	"/>
</g>
</svg>
